<?xml version="1.0" encoding="utf-8"?>
<svg version="1.1" id="Layer_1" xmlns="http://www.w3.org/2000/svg" xmlns:xlink="http://www.w3.org/1999/xlink" x="0px" y="0px"
	 viewBox="0 0 169 96.5" style="enable-background:new 0 0 169 96.5;" xml:space="preserve">
<style type="text/css">
	.st0{fill:#de4848;}
</style>
<path class="st0" d="M43.7,25L43.7,25v46.6h81.5V25H43.7z M111.1,41.5c0,0.9-0.7,1.6-1.6,1.6c-0.9,0-1.6-0.7-1.6-1.6
	s0.7-1.6,1.6-1.6C110.5,39.9,111.1,40.6,111.1,41.5L111.1,41.5 M96.8,41.5c0,0.9-0.7,1.6-1.6,1.6c-0.9,0-1.6-0.7-1.6-1.6
	s0.7-1.6,1.6-1.6C96.2,39.9,96.8,40.6,96.8,41.5 M47.5,67.8v-9.9h13.9c0.6,0.8,1.5,1.3,2.5,1.3c1.7,0,3-1.5,3-3.2c0-1.6-1.4-2.9-3-3
	c-1,0-1.9,0.5-2.5,1.3H47.5V28.7h31.6v11H66.3c-0.6-0.8-1.5-1.3-2.5-1.3c-1.7,0-3,1.5-3,3.2c0,1.6,1.4,2.9,3,3c1,0,1.9-0.5,2.5-1.3
	h12.8v24.5H47.5z M62.2,56c0-0.9,0.7-1.6,1.6-1.6s1.6,0.7,1.6,1.6c0,0.9-0.7,1.6-1.6,1.6C62.9,57.6,62.2,56.9,62.2,56L62.2,56
	 M65.4,41.5c0,0.9-0.7,1.6-1.6,1.6c-0.9,0-1.6-0.7-1.6-1.6s0.7-1.6,1.6-1.6C64.7,39.9,65.4,40.6,65.4,41.5 M100.8,56
	c0-0.9,0.7-1.6,1.6-1.6c0.9,0,1.6,0.7,1.6,1.6c0,0.9-0.7,1.6-1.6,1.6C101.5,57.6,100.8,56.9,100.8,56L100.8,56 M121.5,67.8h-17.3
	v-9.3c1.4-1,1.6-2.9,0.6-4.3c-1-1.4-2.9-1.6-4.3-0.6c-1.4,1-1.6,2.9-0.6,4.3c0.2,0.2,0.4,0.4,0.6,0.6v9.3H82.8V28.7h10.7V39
	c-1.4,1-1.6,2.9-0.6,4.3c1,1.4,2.9,1.6,4.3,0.6c1.4-1,1.6-2.9,0.6-4.3c-0.2-0.2-0.4-0.4-0.6-0.6V28.7h10.6V39
	c-1.4,1-1.6,2.9-0.6,4.3c1,1.4,2.9,1.6,4.3,0.6c1.4-1,1.6-2.9,0.6-4.3c-0.2-0.2-0.4-0.4-0.6-0.6V28.7h10.2L121.5,67.8L121.5,67.8z"
	/>
</svg>
