<?xml version="1.0" encoding="utf-8"?>
<!-- Generator: Adobe Illustrator 21.1.0, SVG Export Plug-In . SVG Version: 6.00 Build 0)  -->
<svg version="1.1" id="Layer_1" xmlns="http://www.w3.org/2000/svg" xmlns:xlink="http://www.w3.org/1999/xlink" x="0px" y="0px"
	 viewBox="0 0 169 96.5" style="enable-background:new 0 0 169 96.5;" xml:space="preserve">
<style type="text/css">
	.st0{fill:#AAA6A0;}
</style>
<path class="st0" d="M0,0L0,0v96.5h169V0H0z M139.7,34.2c0,1.8-1.5,3.3-3.3,3.3s-3.3-1.5-3.3-3.3s1.5-3.3,3.3-3.3
	C138.3,30.9,139.7,32.4,139.7,34.2L139.7,34.2 M110.1,34.2c0,1.8-1.5,3.3-3.3,3.3s-3.3-1.5-3.3-3.3s1.5-3.3,3.3-3.3
	C108.7,30.9,110.1,32.4,110.1,34.2 M7.7,88.8V68.2h28.9c1.2,1.6,3.1,2.6,5.1,2.6c3.6-0.1,6.3-3.1,6.2-6.7c-0.1-3.4-2.8-6-6.2-6.2
	c-2,0-3.9,1-5.1,2.6H7.7V7.7h65.6v22.7H46.7c-1.2-1.6-3.1-2.6-5.1-2.6c-3.6,0.1-6.3,3.1-6.2,6.7c0.1,3.4,2.8,6,6.2,6.2
	c2,0,3.9-1,5.1-2.6h26.6v50.7H7.7z M38.3,64.4c0-1.8,1.5-3.3,3.3-3.3s3.3,1.5,3.3,3.3c0,1.8-1.5,3.3-3.3,3.3
	C39.8,67.7,38.3,66.2,38.3,64.4L38.3,64.4 M44.9,34.2c0,1.8-1.5,3.3-3.3,3.3s-3.3-1.5-3.3-3.3s1.5-3.3,3.3-3.3
	C43.4,30.9,44.9,32.4,44.9,34.2 M118.3,64.4c0-1.8,1.5-3.3,3.3-3.3s3.3,1.5,3.3,3.3c0,1.8-1.5,3.3-3.3,3.3
	C119.8,67.7,118.3,66.2,118.3,64.4L118.3,64.4 M161.3,88.8h-35.9V69.5c2.8-2.1,3.4-6.1,1.3-8.9c-2.1-2.8-6.1-3.4-8.9-1.3
	c-2.8,2.1-3.4,6.1-1.3,8.9c0.4,0.5,0.8,0.9,1.3,1.3v19.3H80.9V7.7H103v21.4c-2.8,2.1-3.4,6.1-1.3,8.9c2.1,2.8,6.1,3.4,8.9,1.3
	c2.8-2.1,3.4-6.1,1.3-8.9c-0.4-0.5-0.8-0.9-1.3-1.3V7.7h21.9v21.4c-2.8,2.1-3.4,6.1-1.3,8.9s6.1,3.4,8.9,1.3
	c2.8-2.1,3.4-6.1,1.3-8.9c-0.4-0.5-0.8-0.9-1.3-1.3V7.7h21.1L161.3,88.8L161.3,88.8z"/>
</svg>
